<svg xmlns="http://www.w3.org/2000/svg" viewBox="0 0 1920 1080"><defs><style>.cls-1,.cls-2,.cls-3,.cls-4,.cls-5{fill:#fff;}.cls-1{opacity:0.2;}.cls-2{opacity:0.15;}.cls-3{opacity:0.05;}.cls-4{opacity:0.1;}.cls-5{opacity:0.25;}</style></defs><g id="Ebene_2" data-name="Ebene 2"><g id="Ebene_2-2" data-name="Ebene 2"><rect class="cls-1" y="758" width="322" height="322"/><rect class="cls-2" x="1759" width="161" height="161"/><rect class="cls-3" x="1598" y="161" width="161" height="161"/><rect class="cls-4" x="1598" y="483" width="161" height="161"/><rect class="cls-3" x="1115" width="322" height="322"/><rect class="cls-3" x="1276" y="483" width="161" height="161"/><rect class="cls-4" x="322" y="597" width="161" height="161"/><rect class="cls-3" width="161" height="161"/><rect class="cls-3" x="161" y="161" width="161" height="161"/><rect class="cls-1" x="322" y="161" width="161" height="161"/><rect class="cls-3" y="597" width="161" height="161"/><rect class="cls-3" x="793" y="483" width="161" height="161"/><rect class="cls-4" x="954" y="322" width="161" height="161"/><rect class="cls-2" x="793" y="161" width="161" height="161"/><rect class="cls-3" x="483" y="758" width="161" height="161"/><rect class="cls-2" x="644" y="758" width="161" height="161"/><rect class="cls-2" x="1276" y="644" width="161" height="161"/><rect class="cls-3" x="1759" y="919" width="161" height="161"/><rect class="cls-5" x="1598" y="919" width="161" height="161"/><rect class="cls-2" x="1759" y="758" width="161" height="161"/><rect class="cls-3" x="1115" y="805" width="161" height="161"/></g></g></svg>