<svg xmlns="http://www.w3.org/2000/svg" viewBox="0 0 109.11 47.83"><defs><style>.cls-1,.cls-4{fill:#ff4800;}.cls-2,.cls-5{fill:#ff7800;}.cls-3{fill:#ffed00;}.cls-3,.cls-4,.cls-5,.cls-6{opacity:0.31;}.cls-6{fill:#fff;}</style></defs><g id="Ebene_2" data-name="Ebene 2"><g id="Ebene_1-2" data-name="Ebene 1"><rect class="cls-1" x="97.36" width="11.75" height="5.91"/><polygon class="cls-2" points="103.23 11.83 103.23 30.08 97.36 30.08 97.36 35.99 91.49 35.99 91.49 41.91 11.74 41.91 11.74 47.83 0 47.83 0 41.91 5.87 41.91 5.87 17.74 11.74 17.74 11.74 11.83 17.62 11.83 17.62 5.91 97.36 5.91 97.36 11.83 103.23 11.83"/><polygon class="cls-3" points="103.23 30.08 103.23 41.91 91.49 41.91 91.49 35.99 97.36 35.99 97.36 30.08 103.23 30.08"/><rect id="ewo4ohi23bsp12" class="cls-4" x="5.87" y="5.91" width="5.87" height="5.91"/><rect class="cls-1" x="5.87" y="11.83" width="5.87" height="5.91"/><rect class="cls-5" x="11.74" y="5.91" width="5.88" height="5.92"/><rect id="ewo4ohi23bsp12-2" data-name="ewo4ohi23bsp12" class="cls-5" x="97.36" y="36" width="5.87" height="5.91"/><rect class="cls-1" x="97.36" y="30.08" width="5.87" height="5.91"/><rect class="cls-1" x="5.87" y="36" width="5.87" height="5.91"/><rect class="cls-6" x="11.75" y="30.08" width="5.87" height="5.91"/><rect class="cls-1" x="17.62" y="30.08" width="5.87" height="5.91"/><rect class="cls-6" x="85.62" y="11.83" width="5.87" height="5.91"/><rect class="cls-6" x="79.75" y="11.83" width="5.87" height="5.91"/><rect class="cls-1" x="73.88" y="17.74" width="5.87" height="5.91"/><rect class="cls-1" x="72.25" y="36" width="5.87" height="5.91"/><rect class="cls-6" x="66.3" y="30.08" width="5.87" height="5.91"/><rect class="cls-1" x="35.23" y="36" width="5.87" height="5.91"/><rect class="cls-2" x="73.88" width="5.87" height="5.91"/><rect class="cls-1" x="68.01" y="5.91" width="5.87" height="5.91"/><rect class="cls-1" x="17.62" y="5.91" width="5.87" height="5.91"/><rect class="cls-1" x="34.46" y="5.91" width="5.87" height="5.91"/><rect class="cls-6" x="34.46" y="17.74" width="5.87" height="5.91"/><rect class="cls-1" x="41.1" y="41.91" width="5.87" height="5.91"/><rect class="cls-5" x="91.49" y="35.99" width="5.87" height="5.92"/></g></g></svg>