<svg id="ewo4ohi23bsp1" xmlns="http://www.w3.org/2000/svg" xmlns:xlink="http://www.w3.org/1999/xlink" viewBox="0 0 27.350000 22.320000" shape-rendering="geometricPrecision" text-rendering="geometricPrecision"><style><![CDATA[#ewo4ohi23bsp4_to {animation: ewo4ohi23bsp4_to__to 2000ms linear infinite normal forwards}@keyframes ewo4ohi23bsp4_to__to { 0% {transform: translate(0px,0px)} 5% {transform: translate(0px,0px)} 10% {transform: translate(0px,0px)} 15% {transform: translate(0px,0px)} 20% {transform: translate(0px,0px)} 25% {transform: translate(0px,1.435000px)} 30% {transform: translate(0px,1.435000px)} 35% {transform: translate(0px,1.435000px)} 40% {transform: translate(0px,1.435000px)} 45% {transform: translate(0px,1.435000px)} 50% {transform: translate(0px,2.850000px)} 55% {transform: translate(0px,2.850000px)} 60% {transform: translate(0px,2.850000px)} 65% {transform: translate(0px,2.850000px)} 70% {transform: translate(0px,2.850000px)} 75% {transform: translate(0px,1.435000px)} 80% {transform: translate(0px,1.435000px)} 85% {transform: translate(0px,1.450000px)} 90% {transform: translate(0px,1.435000px)} 95% {transform: translate(0px,1.435000px)} 100% {transform: translate(0px,-0.011508px)} }]]></style><g id="ewo4ohi23bsp2"><g id="ewo4ohi23bsp3"><g id="ewo4ohi23bsp4_to" transform="translate(0,0)"><rect id="ewo4ohi23bsp4" width="1.430000" height="1.410000" rx="0" ry="0" transform="translate(0,13.700000)" fill="rgb(255,72,0)" stroke="none" stroke-width="1"/></g><polygon id="ewo4ohi23bsp5" points="8.630000,9.370000 8.630000,12.240000 7.190000,12.240000 7.190000,15.110000 5.760000,15.110000 5.760000,16.550000 1.430000,16.550000 1.430000,15.110000 4.320000,15.110000 4.320000,13.680000 2.870000,13.680000 2.870000,10.800000 4.300000,10.800000 4.300000,9.370000 8.630000,9.370000" fill="rgb(255,72,0)" stroke="none" stroke-width="1"/><polygon id="ewo4ohi23bsp6" points="20.150000,3.600000 20.150000,9.360000 14.390000,9.360000 14.390000,7.930000 17.270000,7.930000 17.270000,6.480000 15.830000,6.480000 15.830000,5.040000 18.710000,5.040000 18.710000,3.600000 20.150000,3.600000" fill="rgb(255,72,0)" stroke="none" stroke-width="1"/><path id="ewo4ohi23bsp7" d="M21.840000,4.330000L21.840000,5.520000L23,5.520000L23,4.330000ZM22.840000,4.920000L22.600000,4.920000L22.600000,4.730000L22.410000,4.730000L22.410000,4.490000L22.840000,4.490000Z" fill="rgb(20,20,20)" stroke="none" stroke-width="1"/><polygon id="ewo4ohi23bsp8" points="24.470000,0 24.470000,2.880000 21.590000,2.880000 21.590000,1.440000 23.030000,1.440000 23.030000,0 24.470000,0" fill="rgb(255,72,0)" stroke="none" stroke-width="1"/><path id="ewo4ohi23bsp9" d="M27.350000,7.200000L27.350000,4.320000L24.470000,4.320000L24.470000,2.880000L21.590000,2.880000L21.590000,0.720000L20.150000,0.720000L20.150000,9.360000L10.070000,9.360000L10.070000,10.800000L8.630000,10.800000L8.630000,18L7.190000,18L7.190000,20.880000L8.630000,20.880000L8.630000,19.440000L10.070000,19.440000L10.070000,17.280000L11.510000,17.280000L11.510000,15.840000L20.150000,15.840000L20.150000,17.280000L21.590000,17.280000L21.590000,18.720000L23,18.720000L23,15.840000L21.590000,15.840000L21.590000,14.400000L25.910000,14.400000L25.910000,15.840000L27.350000,15.840000L27.350000,13L24.470000,13L24.470000,7.200000ZM23,5.520000L21.840000,5.520000L21.840000,4.330000L23,4.330000Z" fill="rgb(255,120,0)" stroke="none" stroke-width="1"/><polygon id="ewo4ohi23bsp10" points="22.870000,4.490000 22.870000,4.920000 22.630000,4.920000 22.630000,4.730000 22.440000,4.730000 22.440000,4.490000 22.870000,4.490000" fill="rgb(255,120,0)" stroke="none" stroke-width="1"/><polygon id="ewo4ohi23bsp11" points="14.390000,15.840000 14.390000,17.280000 12.960000,17.280000 12.960000,18.720000 11.510000,18.720000 11.510000,15.840000 14.390000,15.840000" fill="rgb(186,91,7)" stroke="none" stroke-width="1"/><rect id="ewo4ohi23bsp12" width="1.440000" height="1.450000" rx="0" ry="0" transform="matrix(1 0 0 1 10.07000000000000 18.72000000000000)" fill="rgb(20,20,20)" stroke="none" stroke-width="1"/><rect id="ewo4ohi23bsp13" width="1.440000" height="1.440000" rx="0" ry="0" transform="matrix(1 0 0 1 20.15000000000000 18.72000000000000)" fill="rgb(20,20,20)" stroke="none" stroke-width="1"/><rect id="ewo4ohi23bsp14" width="1.440000" height="1.440000" rx="0" ry="0" transform="matrix(1 0 0 1 24.46000000000000 15.84000000000000)" fill="rgb(20,20,20)" stroke="none" stroke-width="1"/><polygon id="ewo4ohi23bsp15" points="22.870000,4.490000 22.870000,4.920000 22.630000,4.920000 22.630000,4.730000 22.440000,4.730000 22.440000,4.490000 22.870000,4.490000" fill="rgb(20,20,20)" stroke="none" stroke-width="1"/><polygon id="ewo4ohi23bsp16" points="22.870000,4.490000 22.870000,4.920000 22.630000,4.920000 22.630000,4.730000 22.440000,4.730000 22.440000,4.490000 22.870000,4.490000" fill="rgb(255,255,255)" stroke="none" stroke-width="1"/><polygon id="ewo4ohi23bsp17" points="22.870000,4.490000 22.870000,4.920000 22.630000,4.920000 22.630000,4.730000 22.440000,4.730000 22.440000,4.490000 22.870000,4.490000" fill="rgb(255,255,255)" stroke="none" stroke-width="1"/><rect id="ewo4ohi23bsp18" width="1.440000" height="1.440000" rx="0" ry="0" transform="matrix(1 0 0 1 5.75000000000000 20.88000000000000)" fill="rgb(20,20,20)" stroke="none" stroke-width="1"/></g></g></svg>